<?xml version="1.0" encoding="UTF-8"?>
<!DOCTYPE svg PUBLIC "-//W3C//DTD SVG 1.1//EN" "http://www.w3.org/Graphics/SVG/1.1/DTD/svg11.dtd">
<!-- Creator: CorelDRAW 2020 (64-Bit) -->
<svg xmlns="http://www.w3.org/2000/svg" xml:space="preserve" width="210mm" height="297mm" version="1.1" style="shape-rendering:geometricPrecision; text-rendering:geometricPrecision; image-rendering:optimizeQuality; fill-rule:evenodd; clip-rule:evenodd"
viewBox="0 0 21000 29700"
 xmlns:xlink="http://www.w3.org/1999/xlink"
 xmlns:xodm="http://www.corel.com/coreldraw/odm/2003">
 <defs>
  <style type="text/css">
   <![CDATA[
    .str1 {stroke:black;stroke-width:24.69;stroke-linejoin:round;stroke-miterlimit:4.62023}
    .str0 {stroke:black;stroke-width:52.92;stroke-linejoin:round;stroke-miterlimit:4.62023}
    .str6 {stroke:black;stroke-width:12.95;stroke-linecap:round;stroke-miterlimit:22.9256}
    .str8 {stroke:black;stroke-width:5.89;stroke-linecap:round;stroke-miterlimit:22.9256}
    .str13 {stroke:black;stroke-width:6;stroke-linecap:round;stroke-miterlimit:22.9256}
    .str11 {stroke:black;stroke-width:16.58;stroke-linecap:round;stroke-miterlimit:22.9256}
    .str16 {stroke:black;stroke-width:14.11;stroke-linecap:round;stroke-miterlimit:22.9256}
    .str7 {stroke:black;stroke-width:9.42;stroke-linecap:round;stroke-miterlimit:22.9256}
    .str12 {stroke:black;stroke-width:9.53;stroke-linecap:round;stroke-miterlimit:22.9256}
    .str9 {stroke:black;stroke-width:4.48;stroke-linecap:round;stroke-miterlimit:22.9256}
    .str5 {stroke:black;stroke-width:20;stroke-linecap:round;stroke-miterlimit:22.9256}
    .str10 {stroke:black;stroke-width:15.06;stroke-linecap:round;stroke-miterlimit:22.9256}
    .str4 {stroke:black;stroke-width:13.05;stroke-miterlimit:22.9256}
    .str15 {stroke:black;stroke-width:14.11;stroke-miterlimit:22.9256}
    .str2 {stroke:black;stroke-width:20;stroke-miterlimit:22.9256}
    .str3 {stroke:black;stroke-width:17.64;stroke-miterlimit:22.9256}
    .str14 {stroke:black;stroke-width:14.11;stroke-linecap:round;stroke-miterlimit:22.9256}
    .str17 {stroke:black;stroke-width:17.64;stroke-linecap:round;stroke-miterlimit:22.9256}
    .fil1 {fill:none}
    .fil3 {fill:black}
    .fil0 {fill:white}
    .fil2 {fill:black;fill-rule:nonzero}
   ]]>
  </style>
 </defs>
 <g id="Layer_x0020_1">
  <metadata id="CorelCorpID_0Corel-Layer"/>
  <path class="fil0" d="M4174.83 12368.83l1238.79 0c91.84,0 166.97,75.13 166.97,166.97l0 1123.93c0,91.84 -75.13,166.97 -166.97,166.97l-1238.79 0c-91.84,0 -166.97,-75.13 -166.97,-166.97l0 -1123.93c0,-91.84 75.13,-166.97 166.97,-166.97z"/>
  <g id="_2698999689712">
   <path class="fil1 str0" d="M5444.4 12787l0 636.96c0,81.09 -66.33,147.42 -147.42,147.42l-990.8 0c-81.09,0 -147.42,-66.33 -147.42,-147.42l0 -722.45c0,-81.09 66.33,-147.42 147.42,-147.42l545.4 0"/>
   <path class="fil1 str1" d="M5327.07 12820.62l0 471.03c0,60.1 -49.17,109.27 -109.27,109.27l-832.46 0c-60.09,0 -109.26,-49.17 -109.26,-109.27l0 -535.46c0,-60.09 49.17,-109.26 109.26,-109.26l575.13 0"/>
   <line class="fil1 str2" x1="4198.86" y1="13524.77" x2="4298.28" y2= "13357.47" />
   <line class="fil1 str2" x1="5408.1" y1="13520.57" x2="5308.51" y2= "13352.38" />
   <path class="fil1 str3" d="M4930.77 12650.12l-2.63 -3.19m-76.56 -92.84l-13.43 -16.28"/>
   <path class="fil1" d="M4851.58 12554.09l-545.4 0c-81.09,0 -147.42,66.33 -147.42,147.42l0 722.45c0,38.89 15.26,74.4 40.1,100.81l99.42 -167.3c-13.92,-18.33 -22.2,-41.16 -22.2,-65.82l0 -535.46c0,-60.09 49.17,-109.26 109.26,-109.26l542.8 0"/>
   <line class="fil1 str4" x1="4801.58" y1="12554.09" x2="4801.58" y2= "12554.09" />
   <line class="fil1 str4" x1="4802.52" y1="12596.97" x2="4802.52" y2= "12596.97" />
   <line class="fil1 str4" x1="4802.52" y1="12596.97" x2="4802.52" y2= "12596.97" />
   <line class="fil1 str4" x1="4802.52" y1="12596.97" x2="4802.52" y2= "12596.97" />
   <line class="fil1 str4" x1="4802.52" y1="12596.97" x2="4802.52" y2= "12596.97" />
   <line class="fil1 str2" x1="4801.58" y1="12554.09" x2="4801.58" y2= "12554.09" />
   <line class="fil1 str2" x1="4802.52" y1="12596.97" x2="4802.52" y2= "12596.97" />
   <line class="fil1 str2" x1="4802.52" y1="12596.97" x2="4802.52" y2= "12596.97" />
   <line class="fil1 str2" x1="4802.52" y1="12596.97" x2="4802.52" y2= "12596.97" />
   <line class="fil1 str2" x1="4802.52" y1="12596.97" x2="4802.52" y2= "12596.97" />
   <line class="fil1 str2" x1="4801.58" y1="12554.09" x2="4801.58" y2= "12554.09" />
   <line class="fil1 str2" x1="4802.52" y1="12596.97" x2="4802.52" y2= "12596.97" />
   <line class="fil1 str2" x1="4802.52" y1="12596.97" x2="4802.52" y2= "12596.97" />
   <line class="fil1 str2" x1="4802.52" y1="12596.97" x2="4802.52" y2= "12596.97" />
   <line class="fil1 str2" x1="4802.52" y1="12596.97" x2="4802.52" y2= "12596.97" />
   <line class="fil1 str2" x1="4801.58" y1="12554.09" x2="4801.58" y2= "12554.09" />
   <line class="fil1 str2" x1="4802.52" y1="12596.97" x2="4802.52" y2= "12596.97" />
   <line class="fil1 str2" x1="4802.52" y1="12596.97" x2="4802.52" y2= "12596.97" />
   <line class="fil1 str2" x1="4802.52" y1="12596.97" x2="4802.52" y2= "12596.97" />
   <line class="fil1 str2" x1="4802.52" y1="12596.97" x2="4802.52" y2= "12596.97" />
   <line class="fil1 str2" x1="4801.58" y1="12554.09" x2="4801.58" y2= "12554.09" />
   <line class="fil1 str2" x1="4801.58" y1="12554.09" x2="4801.58" y2= "12554.09" />
   <line class="fil1 str2" x1="4801.58" y1="12554.09" x2="4801.58" y2= "12554.09" />
   <line class="fil1 str5" x1="5207.62" y1="12816.13" x2="5261.17" y2= "12852.31" />
   <line class="fil1 str5" x1="5016.16" y1="12719.06" x2="4941.33" y2= "12911.66" />
   <line class="fil1 str5" x1="5005.18" y1="12707.48" x2="4964.65" y2= "12851.66" />
   <line class="fil1 str6" x1="4964.65" y1="12851.66" x2="5016.6" y2= "13003.58" />
   <line class="fil1 str6" x1="4958.37" y1="12867.83" x2="5006.38" y2= "12973.68" />
   <line class="fil1 str7" x1="4941.33" y1="12911.66" x2="4801" y2= "13079.57" />
   <line class="fil1 str7" x1="4938.17" y1="12901.57" x2="4855.68" y2= "13014.14" />
   <line class="fil1 str6" x1="5207.62" y1="12816.13" x2="5133.57" y2= "12996.72" />
   <line class="fil1 str6" x1="5196.81" y1="12817.93" x2="5150.83" y2= "12958.23" />
   <line class="fil1 str7" x1="4941.33" y1="12911.66" x2="4956.3" y2= "12977.19" />
   <line class="fil1 str7" x1="4949.07" y1="12910.6" x2="4950.17" y2= "12950.32" />
   <line class="fil1 str6" x1="5133.57" y1="12996.72" x2="5207.42" y2= "13069.08" />
   <line class="fil1 str6" x1="5215.99" y1="12821.78" x2="5143.74" y2= "12997.44" />
   <line class="fil1 str6" x1="5143.74" y1="12997.44" x2="5165.39" y2= "13027.88" />
   <line class="fil1 str6" x1="5148.13" y1="12986.77" x2="5204.88" y2= "13066.58" />
   <line class="fil1 str8" x1="5226.72" y1="13130.23" x2="5212.22" y2= "13070.17" />
   <line class="fil1 str8" x1="5207.42" y1="13069.08" x2="5221.23" y2= "13107.45" />
   <line class="fil1 str7" x1="5207.42" y1="13069.08" x2="5164.48" y2= "13134.11" />
   <line class="fil1 str7" x1="5198.86" y1="13066.1" x2="5172.95" y2= "13121.29" />
   <line class="fil1 str8" x1="5164.48" y1="13134.11" x2="5106.63" y2= "13171.76" />
   <line class="fil1 str8" x1="5164.89" y1="13129.78" x2="5125.99" y2= "13159.16" />
   <line class="fil1 str8" x1="5164.89" y1="13137.75" x2="5166.69" y2= "13175.74" />
   <line class="fil1 str8" x1="5166.69" y1="13175.74" x2="5196.72" y2= "13204.68" />
   <line class="fil1 str8" x1="5106.63" y1="13171.76" x2="5078.67" y2= "13226.06" />
   <line class="fil1 str8" x1="5164.97" y1="13139.53" x2="5109.8" y2= "13169.69" />
   <line class="fil1 str8" x1="5016.6" y1="13003.58" x2="4989.02" y2= "13119.3" />
   <line class="fil1 str8" x1="5002.77" y1="13065.56" x2="5020.69" y2= "13005.67" />
   <line class="fil1 str8" x1="5011.64" y1="12997.35" x2="5007.82" y2= "13040.44" />
   <line class="fil1 str8" x1="5002.77" y1="13065.56" x2="5033.39" y2= "13106.45" />
   <line class="fil1 str8" x1="5005.75" y1="13055.63" x2="5018.09" y2= "13086" />
   <line class="fil1 str9" x1="4989.02" y1="13119.3" x2="4954.72" y2= "13151.48" />
   <line class="fil1 str9" x1="4991.11" y1="13110.54" x2="4971.88" y2= "13135.38" />
   <line class="fil1 str9" x1="4990" y1="13121.26" x2="4993.98" y2= "13129.22" />
   <line class="fil1 str10" x1="4930.77" y1="12650.12" x2="5001.11" y2= "12721.98" />
   <line class="fil1 str9" x1="4910.34" y1="12640.54" x2="4990.67" y2= "12723.04" />
   <line class="fil1 str9" x1="4991.44" y1="12701.33" x2="4978.33" y2= "12821.46" />
   <line class="fil1 str11" x1="5005.15" y1="12732.45" x2="5152.04" y2= "12740.4" />
   <line class="fil1 str11" x1="5142.74" y1="12739.89" x2="5175.92" y2= "12763.56" />
   <line class="fil1 str11" x1="5175.92" y1="12763.56" x2="5193.71" y2= "12827.37" />
   <line class="fil1 str11" x1="5210.57" y1="12834.95" x2="5254.13" y2= "12866.33" />
   <line class="fil1 str11" x1="5256.18" y1="12854.63" x2="5424.75" y2= "12793.57" />
   <line class="fil1 str12" x1="4801" y1="13079.57" x2="4813.52" y2= "13106.24" />
   <line class="fil1 str13" x1="4805.79" y1="13073.83" x2="4811.03" y2= "13100.92" />
   <path class="fil2" d="M4523.33 12877.32c0,0.89 -0.73,2.2 -2.16,3.82 -14.71,17.02 -32.92,25.51 -54.65,25.51 -22.62,0 -40.76,-8.26 -54.31,-24.73 -12.7,-15.41 -19.02,-34.59 -19.02,-57.67 0,-23.04 6.44,-42.34 19.37,-57.85 13.74,-16.71 31.88,-25.09 54.45,-25.09 22.89,0 40.57,7.73 53.12,23.16 1.19,1.58 1.81,2.93 1.81,3.97 0,1.28 -2.01,5.06 -6.02,11.35 -4.02,6.29 -6.45,9.46 -7.3,9.46 -0.96,0 -3.27,-1.86 -6.9,-5.56 -4.45,-4.51 -8.65,-7.92 -12.59,-10.19 -6.48,-3.7 -13.66,-5.56 -21.49,-5.56 -14.94,0 -26.56,5.68 -34.86,17.07 -7.41,10.18 -11.11,22.99 -11.11,38.47 0,15.44 3.66,28.37 11,38.79 8.29,11.69 19.87,17.52 34.74,17.52 7.4,0 14.55,-1.84 21.42,-5.52 4.51,-2.39 9.14,-5.82 13.82,-10.26 3.92,-3.67 6.05,-5.52 6.44,-5.52 0.46,0 2.93,2.97 7.45,8.95 4.51,5.99 6.79,9.27 6.79,9.88zm75.23 5.41c0,1.66 -0.15,3.89 -0.47,6.75 -0.34,3.51 -0.57,5.8 -0.66,6.83 -0.07,1.35 -0.18,2.16 -0.34,2.48 -0.31,0.53 -1,1.04 -2.12,1.57 -6.18,2.98 -15.86,4.44 -29.1,4.44 -17.48,0 -26.29,-7.98 -26.37,-23.97 0,-6.4 0.12,-16.01 0.35,-28.87 0.23,-12.84 0.35,-22.49 0.35,-28.9 0,-3.09 -1.54,-4.75 -4.63,-4.98 -2.82,0 -5.56,-0.04 -8.26,-0.12 -1.58,-0.38 -2.39,-3.47 -2.39,-9.3 0,-2.15 0.15,-4.47 0.46,-6.9 0.23,-1.82 1.43,-2.9 3.63,-3.28 1.85,0 3.7,-0.05 5.52,-0.13 3.48,-0.15 5.2,-1.69 5.2,-4.62 0,-3.01 -0.07,-7.61 -0.23,-13.82 -0.15,-6.18 -0.23,-10.81 -0.23,-13.89 0,-5.53 1.04,-8.26 3.17,-8.26 0.65,0 7.72,1.16 21.11,3.46 1.74,0.24 2.58,1.05 2.58,2.48 0,3.35 -0.26,8.33 -0.81,14.97 -0.53,6.64 -0.81,11.62 -0.81,14.94 0,2.2 1.04,3.28 3.09,3.28l27.3 0c1.26,0 1.92,0.47 1.92,1.36 0,0.88 -0.15,2.35 -0.43,4.35 -0.26,1.97 -0.38,3.48 -0.38,4.44 0,1.12 0.03,2.86 0.12,5.21 0.08,2.32 0.11,4.06 0.11,5.17 0,1.44 -1.04,2.17 -3.16,2.17 -3.05,0 -7.6,-0.2 -13.74,-0.58 -6.1,-0.39 -10.66,-0.58 -13.7,-0.58 -0.58,0 -1.05,2.16 -1.36,6.44 -0.15,5.37 -0.23,12.86 -0.23,22.54l0 16.87c0,6.48 0.62,11 1.82,13.55 1.77,3.93 5.48,5.9 11.12,5.9 2.3,0 5.71,-0.5 10.22,-1.51 4.48,-1 7.84,-1.5 9.99,-1.5 0.89,0 1.36,0.66 1.36,2.01zm80.78 -85.53c0,8.3 -0.58,15.86 -1.69,22.65 -0.23,1.74 -1.01,2.6 -2.28,2.6 -1.58,0 -3.98,-0.17 -7.19,-0.51 -3.23,-0.35 -5.66,-0.5 -7.33,-0.5 -9.52,0 -15.63,2.66 -18.26,8.03 -1.57,3.24 -2.38,9.99 -2.38,20.22l0 12.47c0,4.2 0.15,10.61 0.46,19.22 0.31,8.57 0.46,14.97 0.46,19.21 0,2.02 -0.84,3.05 -2.58,3.05 -2.32,0 -5.83,-0.03 -10.54,-0.1 -4.7,-0.08 -8.26,-0.13 -10.58,-0.13 -1.69,0 -2.58,-0.93 -2.58,-2.82 0,-6.09 0.12,-15.31 0.31,-27.59 0.19,-12.27 0.27,-21.53 0.27,-27.71 0,-18.6 -1.7,-33.58 -5.1,-44.89 -0.15,-0.61 -0.23,-1.04 -0.23,-1.34 0,-0.93 0.51,-1.55 1.47,-1.94 2.74,-0.31 6.64,-0.77 11.65,-1.39 8.07,-1.54 11.82,-2.31 11.2,-2.31 1.19,0 2,2.23 2.35,6.72 0.39,4.51 1.09,6.75 2.05,6.75 0.15,0 0.34,-0.08 0.58,-0.23 3.09,-1.97 6.17,-3.94 9.3,-5.95 3.39,-2.05 6.87,-3.55 10.46,-4.55 2.93,-0.89 6.72,-1.35 11.34,-1.35 5.91,0 8.84,0.81 8.84,2.39zm41 -50.6l-0.12 1.46c-1.62,28.03 -2.43,52.11 -2.43,72.26 0,8.95 0.15,22.39 0.46,40.3 0.31,17.91 0.42,31.3 0.42,40.21 0,1.73 -0.58,2.58 -1.77,2.58l-21.62 0c-1.34,0 -2.04,-0.85 -2.04,-2.58 0,-8.91 0.07,-22.3 0.24,-40.21 0.15,-17.91 0.23,-31.35 0.23,-40.3 0,-8.15 -0.4,-20.38 -1.16,-36.7 -0.78,-16.34 -1.16,-28.49 -1.16,-36.55 0,-1.51 0.78,-2.28 2.35,-2.28 1.36,0 3.4,0.11 6.11,0.34 2.7,0.24 4.7,0.35 6.09,0.35 1.39,0 3.51,-0.11 6.29,-0.35 2.78,-0.23 4.82,-0.34 6.17,-0.34 1.36,0 2.01,0.61 1.94,1.81z"/>
   <line class="fil1 str11" x1="5260.51" y1="12864.04" x2="5429.08" y2= "12802.98" />
   <polyline class="fil1 str11" points="4948.27,12638.34 5001.11,12721.98 5013.21,12726.68 "/>
   <line class="fil1 str14" x1="5023.82" y1="12711.46" x2="5162.76" y2= "12716.52" />
   <line class="fil1 str14" x1="5162.76" y1="12716.52" x2="5193.17" y2= "12744.75" />
   <line class="fil1 str14" x1="5193.17" y1="12744.75" x2="5214.87" y2= "12810.6" />
   <line class="fil1 str15" x1="5210.15" y1="12796.27" x2="5269.96" y2= "12854.23" />
   <line class="fil1 str15" x1="5254.13" y1="12850.64" x2="5424.75" y2= "12793.57" />
   <line class="fil1 str15" x1="5249.28" y1="12844.28" x2="5425.2" y2= "12783.33" />
   <line class="fil1 str15" x1="5206.19" y1="12819.62" x2="5175.92" y2= "12751.73" />
   <line class="fil1 str15" x1="5212.91" y1="12804.65" x2="5166.13" y2= "12726.16" />
   <line class="fil1 str15" x1="5193.78" y1="12772.55" x2="5143.78" y2= "12715.83" />
   <line class="fil1 str15" x1="5149.49" y1="12716.04" x2="5022.13" y2= "12726.16" />
   <line class="fil1 str15" x1="5016.16" y1="12719.06" x2="4967.89" y2= "12669.39" />
   <polygon class="fil3 str16" points="4158.76,12701.51 4275.73,12701.51 4275.73,13368.08 4158.76,13368.08 "/>
   <polygon class="fil3 str16" points="4210.68,13329.02 4180.2,13329.02 4180.2,13500.29 4210.68,13500.29 "/>
   <polygon class="fil3 str16" points="4240.35,13339.15 4186.08,13339.15 4186.08,13450.58 4240.35,13450.58 "/>
   <polygon class="fil3 str16" points="4228.06,13311.64 4202.72,13311.64 4202.72,13469.4 4228.06,13469.4 "/>
   <polygon class="fil3 str16" points="4267.86,13313.81 4228.06,13313.81 4228.06,13402.1 4267.86,13402.1 "/>
   <polygon class="fil3 str16" points="4247.96,13357.95 4240.35,13357.95 4240.35,13420.19 4247.96,13420.19 "/>
   <polygon class="fil3 str16" points="4267.86,13320.33 4247.96,13320.33 4247.96,13402.1 4267.86,13402.1 "/>
   <polygon class="fil3 str16" points="4284.32,13350.91 4277.99,13350.91 4277.99,13365.57 4284.32,13365.57 "/>
   <polygon class="fil3 str16" points="4280.6,12564.46 4242.24,12564.46 4242.24,12717.88 4280.6,12717.88 "/>
   <polygon class="fil3 str16" points="4229.21,12593.41 4198.82,12593.41 4198.82,12720.06 4229.21,12720.06 "/>
   <polygon class="fil3 str16" points="4258.88,12577.49 4206.05,12577.49 4206.05,12725.12 4258.88,12725.12 "/>
   <polygon class="fil3 str16" points="4206.05,12633.93 4178.56,12633.93 4178.56,12712.09 4206.05,12712.09 "/>
   <polygon class="fil3 str16" points="4306.18,12554.09 4271.19,12554.09 4271.19,12683.14 4306.18,12683.14 "/>
   <polygon class="fil3 str16" points="4342.11,12557.95 4293.62,12557.95 4293.62,12649.85 4342.11,12649.85 "/>
   <polygon class="fil3 str16" points="4377.57,12560.84 4332.7,12560.84 4332.7,12644.79 4377.57,12644.79 "/>
   <polygon class="fil3 str16" points="4432.57,12569.53 4360.2,12569.53 4360.2,12633.93 4432.57,12633.93 "/>
   <polygon class="fil3 str16" points="4353.69,12554.09 4837.82,12554.09 4837.82,12637.55 4353.69,12637.55 "/>
   <polygon class="fil3 str16" points="4792.24,12575.31 4873.29,12575.31 4873.29,12629.59 4792.24,12629.59 "/>
   <polygon class="fil3 str16" points="4832.04,12554.09 4860.99,12554.09 4860.99,12575.31 4832.04,12575.31 "/>
   <polygon class="fil3 str16" points="4846.51,12564.7 4873.29,12564.7 4873.29,12575.31 4846.51,12575.31 "/>
   <polygon class="fil3 str16" points="4856.29,12575.31 4884.46,12575.31 4884.46,12593.97 4856.29,12593.97 "/>
   <polygon class="fil3 str16" points="4861.73,12607.52 4909.85,12607.52 4909.85,12635.75 4861.73,12635.75 "/>
   <polygon class="fil3 str16" points="4924.32,12638.29 4909.85,12638.29 4909.85,12618.39 4924.32,12618.39 "/>
   <polygon class="fil3 str16" points="4897.55,12611.51 4884.46,12611.51 4884.46,12593.97 4897.55,12593.97 "/>
   <polygon class="fil3 str16" points="4933.01,12643.71 4926.86,12643.71 4926.86,12631.77 4933.01,12631.77 "/>
   <polygon class="fil3" points="5458.68,12822.53 5420.51,12808.64 5428.11,12787.78 5466.27,12801.67 "/>
   <line class="fil1 str15" x1="5057.31" y1="12723.36" x2="5148.68" y2= "12728.77" />
   <line class="fil1 str15" x1="5417.88" y1="12781.61" x2="5460.09" y2= "12799.42" />
   <path class="fil1 str0" d="M5444.4 12787l0 636.96c0,81.09 -66.33,147.42 -147.42,147.42l-990.8 0c-81.09,0 -147.42,-66.33 -147.42,-147.42l0 -722.45c0,-81.09 66.33,-147.42 147.42,-147.42l545.4 0"/>
   <path class="fil1 str1" d="M5327.07 12820.62l0 471.03c0,60.1 -49.17,109.27 -109.27,109.27l-832.46 0c-60.09,0 -109.26,-49.17 -109.26,-109.27l0 -535.46c0,-60.09 49.17,-109.26 109.26,-109.26l575.13 0"/>
   <path class="fil1 str3" d="M4930.77 12650.12l-2.63 -3.19m-76.56 -92.84l-13.43 -16.28"/>
   <path class="fil1" d="M4851.58 12554.09l-545.4 0c-81.09,0 -147.42,66.33 -147.42,147.42l0 722.45c0,38.89 15.26,74.4 40.1,100.81l99.42 -167.3c-13.92,-18.33 -22.2,-41.16 -22.2,-65.82l0 -535.46c0,-60.09 49.17,-109.26 109.26,-109.26l542.8 0"/>
   <line class="fil1 str4" x1="4801.58" y1="12554.09" x2="4801.58" y2= "12554.09" />
   <line class="fil1 str4" x1="4802.52" y1="12596.97" x2="4802.52" y2= "12596.97" />
   <line class="fil1 str4" x1="4802.52" y1="12596.97" x2="4802.52" y2= "12596.97" />
   <line class="fil1 str4" x1="4802.52" y1="12596.97" x2="4802.52" y2= "12596.97" />
   <line class="fil1 str4" x1="4802.52" y1="12596.97" x2="4802.52" y2= "12596.97" />
   <line class="fil1 str2" x1="4801.58" y1="12554.09" x2="4801.58" y2= "12554.09" />
   <line class="fil1 str2" x1="4802.52" y1="12596.97" x2="4802.52" y2= "12596.97" />
   <line class="fil1 str2" x1="4802.52" y1="12596.97" x2="4802.52" y2= "12596.97" />
   <line class="fil1 str2" x1="4802.52" y1="12596.97" x2="4802.52" y2= "12596.97" />
   <line class="fil1 str2" x1="4802.52" y1="12596.97" x2="4802.52" y2= "12596.97" />
   <line class="fil1 str2" x1="4801.58" y1="12554.09" x2="4801.58" y2= "12554.09" />
   <line class="fil1 str2" x1="4802.52" y1="12596.97" x2="4802.52" y2= "12596.97" />
   <line class="fil1 str2" x1="4802.52" y1="12596.97" x2="4802.52" y2= "12596.97" />
   <line class="fil1 str2" x1="4802.52" y1="12596.97" x2="4802.52" y2= "12596.97" />
   <line class="fil1 str2" x1="4802.52" y1="12596.97" x2="4802.52" y2= "12596.97" />
   <line class="fil1 str2" x1="4801.58" y1="12554.09" x2="4801.58" y2= "12554.09" />
   <line class="fil1 str2" x1="4802.52" y1="12596.97" x2="4802.52" y2= "12596.97" />
   <line class="fil1 str2" x1="4802.52" y1="12596.97" x2="4802.52" y2= "12596.97" />
   <line class="fil1 str2" x1="4802.52" y1="12596.97" x2="4802.52" y2= "12596.97" />
   <line class="fil1 str2" x1="4802.52" y1="12596.97" x2="4802.52" y2= "12596.97" />
   <line class="fil1 str2" x1="4801.58" y1="12554.09" x2="4801.58" y2= "12554.09" />
   <line class="fil1 str2" x1="4801.58" y1="12554.09" x2="4801.58" y2= "12554.09" />
   <line class="fil1 str2" x1="4801.58" y1="12554.09" x2="4801.58" y2= "12554.09" />
   <line class="fil1 str5" x1="5207.62" y1="12816.13" x2="5261.17" y2= "12852.31" />
   <line class="fil1 str5" x1="5016.16" y1="12719.06" x2="4941.33" y2= "12911.66" />
   <line class="fil1 str5" x1="5005.18" y1="12707.48" x2="4964.65" y2= "12851.66" />
   <line class="fil1 str6" x1="4964.65" y1="12851.66" x2="5016.6" y2= "13003.58" />
   <line class="fil1 str6" x1="4958.37" y1="12867.83" x2="5006.38" y2= "12973.68" />
   <line class="fil1 str7" x1="4941.33" y1="12911.66" x2="4801" y2= "13079.57" />
   <line class="fil1 str7" x1="4938.17" y1="12901.57" x2="4855.68" y2= "13014.14" />
   <line class="fil1 str6" x1="5207.62" y1="12816.13" x2="5133.57" y2= "12996.72" />
   <line class="fil1 str6" x1="5196.81" y1="12817.93" x2="5150.83" y2= "12958.23" />
   <line class="fil1 str7" x1="4941.33" y1="12911.66" x2="4956.3" y2= "12977.19" />
   <line class="fil1 str7" x1="4949.07" y1="12910.6" x2="4950.17" y2= "12950.32" />
   <line class="fil1 str6" x1="5133.57" y1="12996.72" x2="5207.42" y2= "13069.08" />
   <line class="fil1 str6" x1="5215.99" y1="12821.78" x2="5143.74" y2= "12997.44" />
   <line class="fil1 str6" x1="5143.74" y1="12997.44" x2="5165.39" y2= "13027.88" />
   <line class="fil1 str6" x1="5148.13" y1="12986.77" x2="5204.88" y2= "13066.58" />
   <line class="fil1 str8" x1="5226.72" y1="13130.23" x2="5212.22" y2= "13070.17" />
   <line class="fil1 str8" x1="5207.42" y1="13069.08" x2="5221.23" y2= "13107.45" />
   <line class="fil1 str7" x1="5207.42" y1="13069.08" x2="5164.48" y2= "13134.11" />
   <line class="fil1 str7" x1="5198.86" y1="13066.1" x2="5172.95" y2= "13121.29" />
   <line class="fil1 str8" x1="5164.48" y1="13134.11" x2="5106.63" y2= "13171.76" />
   <line class="fil1 str8" x1="5164.89" y1="13129.78" x2="5125.99" y2= "13159.16" />
   <line class="fil1 str8" x1="5164.89" y1="13137.75" x2="5166.69" y2= "13175.74" />
   <line class="fil1 str8" x1="5166.69" y1="13175.74" x2="5196.72" y2= "13204.68" />
   <line class="fil1 str8" x1="5106.63" y1="13171.76" x2="5078.67" y2= "13226.06" />
   <line class="fil1 str8" x1="5164.97" y1="13139.53" x2="5109.8" y2= "13169.69" />
   <line class="fil1 str8" x1="5016.6" y1="13003.58" x2="4989.02" y2= "13119.3" />
   <line class="fil1 str8" x1="5002.77" y1="13065.56" x2="5020.69" y2= "13005.67" />
   <line class="fil1 str8" x1="5011.64" y1="12997.35" x2="5007.82" y2= "13040.44" />
   <line class="fil1 str8" x1="5002.77" y1="13065.56" x2="5033.39" y2= "13106.45" />
   <line class="fil1 str8" x1="5005.75" y1="13055.63" x2="5018.09" y2= "13086" />
   <line class="fil1 str9" x1="4989.02" y1="13119.3" x2="4954.72" y2= "13151.48" />
   <line class="fil1 str9" x1="4991.11" y1="13110.54" x2="4971.88" y2= "13135.38" />
   <line class="fil1 str9" x1="4990" y1="13121.26" x2="4993.98" y2= "13129.22" />
   <line class="fil1 str10" x1="4930.77" y1="12650.12" x2="5001.11" y2= "12721.98" />
   <line class="fil1 str9" x1="4910.34" y1="12640.54" x2="4990.67" y2= "12723.04" />
   <line class="fil1 str9" x1="4991.44" y1="12701.33" x2="4978.33" y2= "12821.46" />
   <line class="fil1 str11" x1="5005.15" y1="12732.45" x2="5152.04" y2= "12740.4" />
   <line class="fil1 str11" x1="5142.74" y1="12739.89" x2="5175.92" y2= "12763.56" />
   <line class="fil1 str11" x1="5175.92" y1="12763.56" x2="5193.71" y2= "12827.37" />
   <line class="fil1 str11" x1="5210.57" y1="12834.95" x2="5254.13" y2= "12866.33" />
   <line class="fil1 str11" x1="5256.18" y1="12854.63" x2="5424.75" y2= "12793.57" />
   <line class="fil1 str12" x1="4801" y1="13079.57" x2="4813.52" y2= "13106.24" />
   <line class="fil1 str13" x1="4805.79" y1="13073.83" x2="4811.03" y2= "13100.92" />
   <path class="fil2" d="M4523.33 12877.32c0,0.89 -0.73,2.2 -2.16,3.82 -14.71,17.02 -32.92,25.51 -54.65,25.51 -22.62,0 -40.76,-8.26 -54.31,-24.73 -12.7,-15.41 -19.02,-34.59 -19.02,-57.67 0,-23.04 6.44,-42.34 19.37,-57.85 13.74,-16.71 31.88,-25.09 54.45,-25.09 22.89,0 40.57,7.73 53.12,23.16 1.19,1.58 1.81,2.93 1.81,3.97 0,1.28 -2.01,5.06 -6.02,11.35 -4.02,6.29 -6.45,9.46 -7.3,9.46 -0.96,0 -3.27,-1.86 -6.9,-5.56 -4.45,-4.51 -8.65,-7.92 -12.59,-10.19 -6.48,-3.7 -13.66,-5.56 -21.49,-5.56 -14.94,0 -26.56,5.68 -34.86,17.07 -7.41,10.18 -11.11,22.99 -11.11,38.47 0,15.44 3.66,28.37 11,38.79 8.29,11.69 19.87,17.52 34.74,17.52 7.4,0 14.55,-1.84 21.42,-5.52 4.51,-2.39 9.14,-5.82 13.82,-10.26 3.92,-3.67 6.05,-5.52 6.44,-5.52 0.46,0 2.93,2.97 7.45,8.95 4.51,5.99 6.79,9.27 6.79,9.88zm75.23 5.41c0,1.66 -0.15,3.89 -0.47,6.75 -0.34,3.51 -0.57,5.8 -0.66,6.83 -0.07,1.35 -0.18,2.16 -0.34,2.48 -0.31,0.53 -1,1.04 -2.12,1.57 -6.18,2.98 -15.86,4.44 -29.1,4.44 -17.48,0 -26.29,-7.98 -26.37,-23.97 0,-6.4 0.12,-16.01 0.35,-28.87 0.23,-12.84 0.35,-22.49 0.35,-28.9 0,-3.09 -1.54,-4.75 -4.63,-4.98 -2.82,0 -5.56,-0.04 -8.26,-0.12 -1.58,-0.38 -2.39,-3.47 -2.39,-9.3 0,-2.15 0.15,-4.47 0.46,-6.9 0.23,-1.82 1.43,-2.9 3.63,-3.28 1.85,0 3.7,-0.05 5.52,-0.13 3.48,-0.15 5.2,-1.69 5.2,-4.62 0,-3.01 -0.07,-7.61 -0.23,-13.82 -0.15,-6.18 -0.23,-10.81 -0.23,-13.89 0,-5.53 1.04,-8.26 3.17,-8.26 0.65,0 7.72,1.16 21.11,3.46 1.74,0.24 2.58,1.05 2.58,2.48 0,3.35 -0.26,8.33 -0.81,14.97 -0.53,6.64 -0.81,11.62 -0.81,14.94 0,2.2 1.04,3.28 3.09,3.28l27.3 0c1.26,0 1.92,0.47 1.92,1.36 0,0.88 -0.15,2.35 -0.43,4.35 -0.26,1.97 -0.38,3.48 -0.38,4.44 0,1.12 0.03,2.86 0.12,5.21 0.08,2.32 0.11,4.06 0.11,5.17 0,1.44 -1.04,2.17 -3.16,2.17 -3.05,0 -7.6,-0.2 -13.74,-0.58 -6.1,-0.39 -10.66,-0.58 -13.7,-0.58 -0.58,0 -1.05,2.16 -1.36,6.44 -0.15,5.37 -0.23,12.86 -0.23,22.54l0 16.87c0,6.48 0.62,11 1.82,13.55 1.77,3.93 5.48,5.9 11.12,5.9 2.3,0 5.71,-0.5 10.22,-1.51 4.48,-1 7.84,-1.5 9.99,-1.5 0.89,0 1.36,0.66 1.36,2.01zm80.78 -85.53c0,8.3 -0.58,15.86 -1.69,22.65 -0.23,1.74 -1.01,2.6 -2.28,2.6 -1.58,0 -3.98,-0.17 -7.19,-0.51 -3.23,-0.35 -5.66,-0.5 -7.33,-0.5 -9.52,0 -15.63,2.66 -18.26,8.03 -1.57,3.24 -2.38,9.99 -2.38,20.22l0 12.47c0,4.2 0.15,10.61 0.46,19.22 0.31,8.57 0.46,14.97 0.46,19.21 0,2.02 -0.84,3.05 -2.58,3.05 -2.32,0 -5.83,-0.03 -10.54,-0.1 -4.7,-0.08 -8.26,-0.13 -10.58,-0.13 -1.69,0 -2.58,-0.93 -2.58,-2.82 0,-6.09 0.12,-15.31 0.31,-27.59 0.19,-12.27 0.27,-21.53 0.27,-27.71 0,-18.6 -1.7,-33.58 -5.1,-44.89 -0.15,-0.61 -0.23,-1.04 -0.23,-1.34 0,-0.93 0.51,-1.55 1.47,-1.94 2.74,-0.31 6.64,-0.77 11.65,-1.39 8.07,-1.54 11.82,-2.31 11.2,-2.31 1.19,0 2,2.23 2.35,6.72 0.39,4.51 1.09,6.75 2.05,6.75 0.15,0 0.34,-0.08 0.58,-0.23 3.09,-1.97 6.17,-3.94 9.3,-5.95 3.39,-2.05 6.87,-3.55 10.46,-4.55 2.93,-0.89 6.72,-1.35 11.34,-1.35 5.91,0 8.84,0.81 8.84,2.39zm41 -50.6l-0.12 1.46c-1.62,28.03 -2.43,52.11 -2.43,72.26 0,8.95 0.15,22.39 0.46,40.3 0.31,17.91 0.42,31.3 0.42,40.21 0,1.73 -0.58,2.58 -1.77,2.58l-21.62 0c-1.34,0 -2.04,-0.85 -2.04,-2.58 0,-8.91 0.07,-22.3 0.24,-40.21 0.15,-17.91 0.23,-31.35 0.23,-40.3 0,-8.15 -0.4,-20.38 -1.16,-36.7 -0.78,-16.34 -1.16,-28.49 -1.16,-36.55 0,-1.51 0.78,-2.28 2.35,-2.28 1.36,0 3.4,0.11 6.11,0.34 2.7,0.24 4.7,0.35 6.09,0.35 1.39,0 3.51,-0.11 6.29,-0.35 2.78,-0.23 4.82,-0.34 6.17,-0.34 1.36,0 2.01,0.61 1.94,1.81z"/>
   <line class="fil1 str11" x1="5260.51" y1="12864.04" x2="5429.08" y2= "12802.98" />
   <polyline class="fil1 str11" points="4948.27,12638.34 5001.11,12721.98 5013.21,12726.68 "/>
   <line class="fil1 str14" x1="5023.82" y1="12711.46" x2="5162.76" y2= "12716.52" />
   <line class="fil1 str14" x1="5162.76" y1="12716.52" x2="5193.17" y2= "12744.75" />
   <line class="fil1 str14" x1="5193.17" y1="12744.75" x2="5214.87" y2= "12810.6" />
   <line class="fil1 str15" x1="5210.15" y1="12796.27" x2="5269.96" y2= "12854.23" />
   <line class="fil1 str15" x1="5254.13" y1="12850.64" x2="5424.75" y2= "12793.57" />
   <line class="fil1 str15" x1="5249.28" y1="12844.28" x2="5425.2" y2= "12783.33" />
   <line class="fil1 str15" x1="5206.19" y1="12819.62" x2="5175.92" y2= "12751.73" />
   <line class="fil1 str15" x1="5212.91" y1="12804.65" x2="5166.13" y2= "12726.16" />
   <line class="fil1 str15" x1="5193.78" y1="12772.55" x2="5143.78" y2= "12715.83" />
   <line class="fil1 str15" x1="5149.49" y1="12716.04" x2="5022.13" y2= "12726.16" />
   <line class="fil1 str15" x1="5016.16" y1="12719.06" x2="4967.89" y2= "12669.39" />
   <polygon class="fil3 str16" points="4158.76,12701.51 4275.73,12701.51 4275.73,13368.08 4158.76,13368.08 "/>
   <polygon class="fil3 str16" points="4210.68,13329.02 4180.2,13329.02 4180.2,13500.29 4210.68,13500.29 "/>
   <polygon class="fil3 str16" points="4267.86,13313.81 4228.06,13313.81 4228.06,13402.1 4267.86,13402.1 "/>
   <polygon class="fil3 str16" points="4247.96,13357.95 4240.35,13357.95 4240.35,13420.19 4247.96,13420.19 "/>
   <polygon class="fil3 str16" points="4267.86,13320.33 4247.96,13320.33 4247.96,13402.1 4267.86,13402.1 "/>
   <polygon class="fil3 str16" points="4284.32,13350.91 4277.99,13350.91 4277.99,13365.57 4284.32,13365.57 "/>
   <polygon class="fil3 str16" points="4280.6,12564.46 4242.24,12564.46 4242.24,12717.88 4280.6,12717.88 "/>
   <polygon class="fil3 str16" points="4229.21,12593.41 4198.82,12593.41 4198.82,12720.06 4229.21,12720.06 "/>
   <polygon class="fil3 str16" points="4258.88,12577.49 4206.05,12577.49 4206.05,12725.12 4258.88,12725.12 "/>
   <polygon class="fil3 str16" points="4206.05,12633.93 4178.56,12633.93 4178.56,12712.09 4206.05,12712.09 "/>
   <polygon class="fil3 str16" points="4306.18,12554.09 4271.19,12554.09 4271.19,12683.14 4306.18,12683.14 "/>
   <polygon class="fil3 str16" points="4342.11,12557.95 4293.62,12557.95 4293.62,12649.85 4342.11,12649.85 "/>
   <polygon class="fil3 str16" points="4377.57,12560.84 4332.7,12560.84 4332.7,12644.79 4377.57,12644.79 "/>
   <polygon class="fil3 str16" points="4432.57,12569.53 4360.2,12569.53 4360.2,12633.93 4432.57,12633.93 "/>
   <polygon class="fil3 str16" points="4353.69,12554.09 4837.82,12554.09 4837.82,12637.55 4353.69,12637.55 "/>
   <polygon class="fil3 str16" points="4792.24,12575.31 4873.29,12575.31 4873.29,12629.59 4792.24,12629.59 "/>
   <polygon class="fil3 str16" points="4832.04,12554.09 4860.99,12554.09 4860.99,12575.31 4832.04,12575.31 "/>
   <polygon class="fil3 str16" points="4846.51,12564.7 4873.29,12564.7 4873.29,12575.31 4846.51,12575.31 "/>
   <polygon class="fil3 str16" points="4856.29,12575.31 4884.46,12575.31 4884.46,12593.97 4856.29,12593.97 "/>
   <polygon class="fil3 str16" points="4861.73,12607.52 4909.85,12607.52 4909.85,12635.75 4861.73,12635.75 "/>
   <polygon class="fil3 str16" points="4924.32,12638.29 4909.85,12638.29 4909.85,12618.39 4924.32,12618.39 "/>
   <polygon class="fil3 str16" points="4897.55,12611.51 4884.46,12611.51 4884.46,12593.97 4897.55,12593.97 "/>
   <polygon class="fil3 str16" points="4933.01,12643.71 4926.86,12643.71 4926.86,12631.77 4933.01,12631.77 "/>
   <polygon class="fil3" points="5458.68,12822.53 5420.51,12808.64 5428.11,12787.78 5466.27,12801.67 "/>
   <line class="fil1 str15" x1="5057.31" y1="12723.36" x2="5148.68" y2= "12728.77" />
   <line class="fil1 str15" x1="5417.88" y1="12781.61" x2="5460.09" y2= "12799.42" />
   <line class="fil1 str17" x1="4851.31" y1="12534.57" x2="5023.82" y2= "12711.46" />
  </g>
 </g>
</svg>
